<svg width="97" height="100" fill="none" xmlns="http://www.w3.org/2000/svg"><g clip-path="url('#clip0_1_759')"><path d="M96.242 83.333c0 9.167-7.218 16.667-16.04 16.667H16.04C7.218 100 0 92.5 0 83.333V16.667C0 7.5 7.218 0 16.04 0h64.162c8.822 0 16.04 7.5 16.04 16.667v66.666Z" fill="#563D7C"/><path d="M26.152 21.732h27.284c5.032 0 9.074 1.193 12.109 3.595s4.56 6.013 4.56 10.866c0 2.941-.692 5.458-2.075 7.55-1.384 2.09-3.366 3.725-5.945 4.868v.164c3.46.768 6.086 2.467 7.863 5.098 1.777 2.647 2.674 5.948 2.674 9.934 0 2.288-.394 4.428-1.18 6.406-.786 1.993-2.013 3.709-3.695 5.147-1.683 1.438-3.822 2.581-6.448 3.431-2.626.85-5.74 1.275-9.357 1.275h-25.79V21.732ZM35.98 46.16h16.04c2.36 0 4.325-.686 5.898-2.091 1.572-1.405 2.359-3.399 2.359-6.013 0-2.941-.708-5.017-2.123-6.21-1.416-1.192-3.46-1.797-6.133-1.797H35.98V46.16Zm0 25.572h17.378c2.987 0 5.315-.8 6.95-2.418 1.651-1.601 2.485-3.889 2.485-6.83 0-2.892-.818-5.098-2.485-6.667-1.667-1.568-3.963-2.32-6.95-2.32H35.98v18.235Z" fill="#fff"/></g><defs><clipPath id="clip0_1_759"><path fill="#fff" d="M0 0h96.242v100H0z"/></clipPath></defs></svg>