<svg width="70" height="100" fill="none" xmlns="http://www.w3.org/2000/svg"><g clip-path="url('#clip0_1_767')"><path d="M17.375 100c9.588 0 17.37-7.466 17.37-16.666V66.666h-17.37c-9.588 0-17.37 7.466-17.37 16.666S7.788 100 17.376 100Z" fill="#0ACF83"/><path d="M.006 50c0-9.2 7.781-16.667 17.37-16.667h17.369v33.334h-17.37C7.787 66.666.005 59.2.005 50Z" fill="#A259FF"/><path d="M.004 16.667C.004 7.467 7.785 0 17.374 0h17.369v33.333h-17.37c-9.588 0-17.37-7.466-17.37-16.666Z" fill="#F24E1E"/><path d="M34.746 0h17.37c9.587 0 17.369 7.467 17.369 16.667 0 9.2-7.782 16.666-17.37 16.666h-17.37V0Z" fill="#FF7262"/><path d="M69.485 50c0 9.2-7.782 16.666-17.37 16.666-9.588 0-17.37-7.466-17.37-16.666s7.782-16.667 17.37-16.667c9.588 0 17.37 7.467 17.37 16.667Z" fill="#1ABCFE"/></g><defs><clipPath id="clip0_1_767"><path fill="#fff" d="M0 0h69.492v100H0z"/></clipPath></defs></svg>