<svg width="97" height="100" fill="none" xmlns="http://www.w3.org/2000/svg"><path d="M0 0h96.242v100H0V0Z" fill="#F7DF1E"/><path d="m25.306 83.567 7.365-4.631c1.42 2.617 2.713 4.832 5.814 4.832 2.971 0 4.845-1.208 4.845-5.906V45.91h9.044v32.085c0 9.733-5.49 14.163-13.502 14.163-7.235 0-11.435-3.893-13.566-8.592M57.287 82.56l7.364-4.43c1.939 3.29 4.458 5.706 8.916 5.706 3.747 0 6.137-1.947 6.137-4.632 0-3.222-2.455-4.363-6.59-6.242l-2.26-1.008C64.328 69.068 60 65.444 60 57.791c0-7.048 5.168-12.419 13.244-12.419 5.75 0 9.884 2.081 12.856 7.519l-7.042 4.698c-1.55-2.886-3.23-4.027-5.814-4.027-2.649 0-4.329 1.745-4.329 4.027 0 2.82 1.68 3.961 5.556 5.706l2.26 1.007c7.689 3.424 12.017 6.914 12.017 14.768 0 8.458-6.395 13.09-14.988 13.09-8.398 0-13.825-4.162-16.473-9.6" fill="#000"/></svg>