<svg width="100" height="100" fill="none" xmlns="http://www.w3.org/2000/svg"><path d="M0 50v50h100V0H0v50Z" fill="#007ACC"/><path d="m22.113 50.332-.032 4.095h13.016v36.984h9.207V54.427H57.32v-4.016c0-2.222-.048-4.08-.111-4.127-.048-.063-7.969-.095-17.572-.08l-17.476.048-.048 4.08ZM80.69 46.136c2.54.635 4.477 1.762 6.255 3.603.92.985 2.285 2.778 2.396 3.207.032.127-4.317 3.047-6.952 4.682-.095.064-.476-.349-.905-.984-1.285-1.873-2.635-2.682-4.698-2.825-3.032-.207-4.984 1.38-4.969 4.031 0 .778.112 1.239.43 1.873.666 1.381 1.904 2.207 5.793 3.89 7.158 3.079 10.222 5.11 12.127 8 2.127 3.222 2.603 8.364 1.159 12.19-1.588 4.159-5.524 6.984-11.064 7.92-1.714.302-5.778.254-7.62-.079-4.015-.714-7.825-2.698-10.174-5.302-.92-1.015-2.714-3.666-2.603-3.857.048-.063.46-.317.92-.587a914.44 914.44 0 0 0 3.715-2.143l2.873-1.666.603.888c.841 1.286 2.683 3.048 3.794 3.635 3.19 1.683 7.571 1.445 9.73-.492.92-.841 1.302-1.714 1.302-3 0-1.158-.143-1.666-.746-2.54-.778-1.11-2.365-2.047-6.873-4-5.16-2.222-7.381-3.603-9.413-5.793-1.175-1.27-2.286-3.302-2.746-5-.381-1.413-.476-4.952-.175-6.381 1.064-4.984 4.826-8.46 10.254-9.492 1.762-.333 5.857-.206 7.588.222Z" fill="#fff"/></svg>