<svg width="106" height="100" fill="none" xmlns="http://www.w3.org/2000/svg"><path d="M0 49.55c0 8.354 7.802 16.153 20.102 20.55-2.456 12.929-.44 23.35 6.293 27.41 6.922 4.174 17.234 1.285 27.02-7.66 9.54 8.584 19.182 11.962 25.91 7.89 6.915-4.186 9.018-15.314 6.494-28.647 12.811-4.429 19.978-11.079 19.978-19.543 0-8.16-7.817-15.22-19.951-19.588 2.717-13.884.415-24.052-6.598-28.28-6.76-4.077-16.514-.524-26.195 8.285C42.983.617 33.325-2.237 26.32 2.003c-6.754 4.088-8.681 14.699-6.217 27.868C8.217 34.203 0 41.423 0 49.55Z" fill="#fff"/><path d="M83.275 34.3a60.965 60.965 0 0 0-3.025-.997c.171-.73.328-1.45.468-2.157 2.289-11.62.792-20.982-4.32-24.064-4.901-2.956-12.917.126-21.013 7.493a63.991 63.991 0 0 0-2.34 2.244 58.076 58.076 0 0 0-1.556-1.503C43.004 7.438 34.499 4.119 29.393 7.21c-4.897 2.964-6.348 11.765-4.287 22.778.2 1.064.432 2.15.695 3.254a60.139 60.139 0 0 0-3.477 1.144c-9.948 3.626-16.3 9.31-16.3 15.204 0 6.089 6.82 12.195 17.18 15.898a51.72 51.72 0 0 0 2.54.831 66.795 66.795 0 0 0-.737 3.507c-1.965 10.822-.43 19.415 4.453 22.36 5.045 3.042 13.51-.085 21.755-7.62a54.361 54.361 0 0 0 1.96-1.889c.85.855 1.697 1.664 2.54 2.423 7.985 7.185 15.872 10.086 20.751 7.133 5.04-3.05 6.678-12.282 4.551-23.512a57.857 57.857 0 0 0-.563-2.626 54.358 54.358 0 0 0 1.747-.571c10.771-3.732 17.78-9.764 17.78-15.934 0-5.916-6.558-11.638-16.706-15.29Z" fill="#53C1DE"/><path d="M80.939 61.54c-.514.178-1.041.35-1.578.517-1.19-3.936-2.794-8.122-4.758-12.446 1.874-4.221 3.417-8.353 4.572-12.264.962.29 1.894.597 2.793.921 8.695 3.13 13.998 7.757 13.998 11.322 0 3.798-5.727 8.728-15.027 11.95Zm-3.86 7.996c.94 4.966 1.075 9.456.452 12.966-.56 3.154-1.684 5.257-3.076 6.099-2.961 1.792-9.293-.538-16.122-6.682a58.57 58.57 0 0 1-2.363-2.253c2.648-3.027 5.294-6.547 7.876-10.456 4.542-.421 8.834-1.11 12.725-2.05.192.808.362 1.6.509 2.376ZM38.057 88.29c-2.893 1.068-5.198 1.099-6.59.26-2.964-1.788-4.196-8.687-2.515-17.942.192-1.06.421-2.149.685-3.262 3.85.89 8.109 1.53 12.662 1.917 2.6 3.825 5.322 7.34 8.066 10.419a50.31 50.31 0 0 1-1.79 1.723c-3.646 3.332-7.3 5.696-10.518 6.885ZM24.502 61.517c-4.581-1.637-8.365-3.765-10.958-6.087-2.33-2.087-3.507-4.159-3.507-5.84 0-3.577 5.1-8.14 13.608-11.241a56.093 56.093 0 0 1 3.234-1.064c1.176 3.999 2.718 8.18 4.58 12.408-1.886 4.29-3.45 8.538-4.637 12.584-.8-.24-1.574-.494-2.32-.76Zm4.544-32.335c-1.766-9.435-.594-16.553 2.357-18.34 3.144-1.902 10.095.81 17.42 7.612.469.435.939.89 1.41 1.36-2.73 3.066-5.427 6.555-8.004 10.357-4.419.429-8.649 1.117-12.538 2.038a63.939 63.939 0 0 1-.645-3.027Zm40.528 10.464a134.75 134.75 0 0 0-2.857-4.913c2.998.396 5.87.922 8.567 1.566a92.281 92.281 0 0 1-3.007 8.46 148.446 148.446 0 0 0-2.703-5.113ZM53.047 22.814a88.945 88.945 0 0 1 5.529 6.98 112.993 112.993 0 0 0-11.105-.003 91.729 91.729 0 0 1 5.576-6.977ZM36.413 39.675a125.9 125.9 0 0 0-2.652 5.08 95.423 95.423 0 0 1-2.986-8.5c2.681-.628 5.54-1.14 8.519-1.53a124.44 124.44 0 0 0-2.88 4.95Zm2.966 25.08c-3.077-.36-5.979-.846-8.659-1.456a96.974 96.974 0 0 1 3.046-8.673 125.128 125.128 0 0 0 5.614 10.129Zm13.779 11.908a93.365 93.365 0 0 1-5.653-7.074c1.799.074 3.633.111 5.497.111 1.915 0 3.808-.045 5.672-.132-1.83 2.6-3.677 4.978-5.516 7.095Zm19.157-22.188c1.256 2.993 2.315 5.889 3.156 8.642-2.725.65-5.666 1.173-8.765 1.562a148.23 148.23 0 0 0 2.884-4.999 135.358 135.358 0 0 0 2.725-5.205Zm-6.201 3.109a138.775 138.775 0 0 1-4.508 7.604c-2.788.208-5.668.316-8.604.316-2.924 0-5.768-.095-8.507-.281a119.95 119.95 0 0 1-8.601-15.532 120.989 120.989 0 0 1 3.997-7.92 118.8 118.8 0 0 1 4.555-7.583c2.795-.22 5.66-.336 8.556-.336 2.909 0 5.778.116 8.571.34a127.408 127.408 0 0 1 4.527 7.557 139.791 139.791 0 0 1 4.05 7.883c-1.22 2.63-2.57 5.292-4.037 7.952Zm8.28-46.866c3.146 1.897 4.37 9.548 2.392 19.581-.126.64-.268 1.293-.422 1.953-3.898-.94-8.13-1.64-12.563-2.075-2.581-3.844-5.257-7.339-7.942-10.364a60.113 60.113 0 0 1 2.161-2.072c6.937-6.312 13.42-8.804 16.373-7.023Z" fill="#fff"/><path d="M53.003 40.818c4.634 0 8.39 3.927 8.39 8.773 0 4.844-3.756 8.772-8.39 8.772-4.633 0-8.39-3.928-8.39-8.773s3.757-8.772 8.39-8.772Z" fill="#53C1DE"/></svg>