<svg width="86" height="100" fill="none" xmlns="http://www.w3.org/2000/svg"><path d="M42.739 99.814c-1.328 0-2.566-.366-3.717-1.008L27.254 91.56c-1.77-1.008-.885-1.375-.354-1.558 2.389-.826 2.831-1.01 5.309-2.476.265-.184.62-.092.885.091l9.025 5.594c.354.183.797.183 1.062 0L78.487 72.03c.354-.184.53-.55.53-1.01V28.749c0-.459-.176-.826-.53-1.009L43.18 6.649c-.354-.184-.796-.184-1.062 0L6.813 27.738c-.354.183-.53.642-.53 1.009V71.02c0 .367.176.825.53 1.009l9.645 5.777c5.221 2.75 8.495-.459 8.495-3.668V32.416c0-.55.442-1.1 1.062-1.1h4.513c.53 0 1.061.458 1.061 1.1v41.723c0 7.244-3.804 11.462-10.44 11.462-2.036 0-3.629 0-8.142-2.292l-9.29-5.502C1.415 76.43 0 73.864 0 71.113V28.839c0-2.75 1.416-5.318 3.716-6.694L39.022.963c2.212-1.284 5.22-1.284 7.433 0l35.306 21.182c2.3 1.376 3.716 3.943 3.716 6.694v42.274c0 2.75-1.416 5.318-3.716 6.694L46.455 98.989c-1.15.55-2.478.825-3.716.825Zm10.883-29.068c-15.485 0-18.67-7.336-18.67-13.572 0-.55.442-1.1 1.062-1.1h4.601c.53 0 .973.367.973.917.708 4.86 2.743 7.244 12.123 7.244 7.433 0 10.618-1.742 10.618-5.868 0-2.385-.885-4.127-12.476-5.32-9.645-1.008-15.662-3.209-15.662-11.186 0-7.428 6.017-11.83 16.104-11.83 11.326 0 16.9 4.035 17.609 12.838 0 .275-.089.55-.266.826-.177.183-.442.366-.708.366h-4.6c-.443 0-.886-.366-.974-.825-1.062-5.043-3.805-6.694-11.06-6.694-8.142 0-9.115 2.934-9.115 5.135 0 2.66 1.15 3.485 12.123 4.952 10.883 1.467 16.016 3.576 16.016 11.462-.089 8.07-6.46 12.655-17.698 12.655Z" fill="#539E43"/></svg>