<svg width="35" height="45" viewBox="0 0 35 45" fill="none" xmlns="http://www.w3.org/2000/svg">
<path d="M25.4479 11.9979H25.4625M10.1792 3.69165H24.7208C28.7364 3.69165 31.9917 7.82369 31.9917 12.9208V31.3792C31.9917 36.4763 28.7364 40.6083 24.7208 40.6083H10.1792C6.1636 40.6083 2.90833 36.4763 2.90833 31.3792V12.9208C2.90833 7.82369 6.1636 3.69165 10.1792 3.69165ZM23.2667 20.9871C23.4461 22.5233 23.2394 24.0922 22.6759 25.4707C22.1124 26.8491 21.2209 27.967 20.128 28.6652C19.0352 29.3634 17.7967 29.6064 16.5888 29.3597C15.3809 29.113 14.265 28.3891 13.3999 27.2909C12.5348 26.1928 11.9645 24.7764 11.7701 23.2431C11.5758 21.7099 11.7672 20.1378 12.3173 18.7506C12.8673 17.3635 13.748 16.2318 14.8339 15.5165C15.9199 14.8012 17.1559 14.5389 18.3661 14.7667C19.6006 14.999 20.7435 15.7292 21.6259 16.8493C22.5084 17.9694 23.0836 19.4201 23.2667 20.9871Z" stroke="#242424" stroke-width="4" stroke-linecap="round" stroke-linejoin="round"/>
</svg>
