<svg width="35" height="45" fill="none" xmlns="http://www.w3.org/2000/svg"><path d="M25.448 11.998h.014M10.18 3.692h14.542c4.015 0 7.27 4.132 7.27 9.229v18.458c0 5.097-3.255 9.23-7.27 9.23H10.179c-4.015 0-7.27-4.133-7.27-9.23V12.921c0-5.097 3.255-9.23 7.27-9.23Zm13.088 17.295c.18 1.536-.028 3.105-.591 4.484-.564 1.378-1.455 2.496-2.548 3.194s-2.331.941-3.54.695c-1.207-.247-2.323-.97-3.188-2.07-.865-1.097-1.436-2.514-1.63-4.047a9.165 9.165 0 0 1 .547-4.492c.55-1.388 1.431-2.52 2.517-3.235 1.086-.715 2.322-.977 3.532-.75 1.235.233 2.378.963 3.26 2.083.882 1.12 1.458 2.571 1.64 4.138Z" stroke="#242424" stroke-width="4" stroke-linecap="round" stroke-linejoin="round"/></svg>