<svg width="39" height="51" fill="none" xmlns="http://www.w3.org/2000/svg"><path d="M19.2.507C8.596.507 0 11.694 0 25.493c0 13.8 8.596 24.987 19.2 24.987s19.2-11.187 19.2-24.987c0-13.8-8.596-24.986-19.2-24.986ZM14.5 35.85h-3.888V19.567H14.5V35.85Zm-1.968-18.282c-1.228 0-2.022-1.132-2.022-2.533 0-1.428.818-2.527 2.072-2.527s2.022 1.099 2.046 2.527c0 1.4-.792 2.533-2.096 2.533ZM28.7 35.85h-3.888v-9.024c0-2.1-.564-3.527-1.97-3.527-1.074 0-1.712.966-1.994 1.895-.104.33-.13.799-.13 1.265v9.388h-3.89V24.759c0-2.032-.05-3.732-.102-5.195h3.378l.178 2.262h.078c.512-1.062 1.766-2.629 3.864-2.629 2.558 0 4.476 2.23 4.476 7.025v9.628Z" fill="#000"/></svg>