<svg width="37" height="47" viewBox="0 0 37 47" fill="none" xmlns="http://www.w3.org/2000/svg">
<path d="M17.8607 10.3953C20.6854 10.3953 23.3471 12.0249 25.2977 14.5723V14.5798C25.2977 13.3565 25.9301 12.4311 26.8043 12.4311H27.0263C28.4057 12.4311 28.682 14.1239 28.682 14.6581L28.6878 33.6701C28.5918 34.916 29.6764 35.56 30.2788 34.7595C32.6202 31.6252 35.4264 18.6305 28.8208 11.107C22.6603 4.0845 14.3919 5.24463 9.99586 9.18697C5.32346 13.3881 2.33686 22.6677 5.23789 31.389C8.40602 40.8972 17.4629 43.7336 22.8534 40.9047C25.5821 39.4707 26.8401 44.2647 24.0038 45.8342C19.7292 48.2071 7.81633 47.9648 2.25246 35.4261C-1.50651 26.9561 -1.30764 12.0565 8.66617 4.33729C16.2893 -1.5717 26.3475 0.0654265 32.4109 8.30371C38.7472 16.9242 38.3806 33.0532 32.1947 39.3233C29.3931 42.1747 25.2329 39.4015 25.263 35.247L25.2318 33.8928C23.2812 36.4072 20.6854 37.8818 17.8607 37.8818C12.2725 37.8818 7.35267 31.4777 7.35267 24.213C7.35267 16.87 12.2725 10.3983 17.8607 10.3983V10.3953ZM24.8895 23.6879C24.6779 18.3657 21.6428 15.1607 17.9751 15.1607H17.8364C13.6091 15.1607 11.2608 19.4942 11.2608 24.4071C11.2608 29.9158 14.0971 33.3947 17.819 33.3947C21.9735 33.3947 24.701 29.4388 24.8999 24.7592L24.8895 23.6879Z" fill="black"/>
</svg>
