<svg width="39" height="51" viewBox="0 0 39 51" fill="none" xmlns="http://www.w3.org/2000/svg">
<path d="M19.2 0.506836C8.596 0.506836 0 11.6935 0 25.4933C0 39.293 8.596 50.4797 19.2 50.4797C29.804 50.4797 38.4 39.293 38.4 25.4933C38.4 11.6935 29.804 0.506836 19.2 0.506836ZM14.5 35.8496H10.612V19.5668H14.5V35.8496ZM12.532 17.5679C11.304 17.5679 10.51 16.4357 10.51 15.0354C10.51 13.6065 11.328 12.5081 12.582 12.5081C13.836 12.5081 14.604 13.6065 14.628 15.0354C14.628 16.4357 13.836 17.5679 12.532 17.5679ZM28.7 35.8496H24.812V26.8259C24.812 24.7254 24.248 23.2991 22.842 23.2991C21.768 23.2991 21.13 24.2648 20.848 25.1939C20.744 25.5245 20.718 25.993 20.718 26.4589V35.847H16.828V24.7593C16.828 22.7265 16.778 21.0269 16.726 19.5642H20.104L20.282 21.826H20.36C20.872 20.7641 22.126 19.1972 24.224 19.1972C26.782 19.1972 28.7 21.4278 28.7 26.222V35.8496Z" fill="black"/>
</svg>
