<svg width="37" height="47" fill="none" xmlns="http://www.w3.org/2000/svg"><path d="M17.86 10.395c2.825 0 5.487 1.63 7.438 4.177v.008c0-1.223.632-2.149 1.506-2.149h.222c1.38 0 1.656 1.693 1.656 2.227l.006 19.012c-.096 1.246.988 1.89 1.59 1.09 2.342-3.135 5.148-16.13-1.457-23.653-6.16-7.022-14.43-5.862-18.825-1.92-4.673 4.201-7.66 13.48-4.758 22.202 3.168 9.508 12.225 12.345 17.615 9.516 2.73-1.434 3.987 3.36 1.15 4.93-4.274 2.372-16.187 2.13-21.75-10.409-3.76-8.47-3.56-23.37 6.413-31.089C16.29-1.572 26.347.065 32.411 8.304c6.336 8.62 5.97 24.75-.216 31.02-2.802 2.85-6.962.078-6.932-4.077l-.031-1.354c-1.95 2.514-4.547 3.989-7.371 3.989-5.588 0-10.508-6.404-10.508-13.669 0-7.343 4.92-13.815 10.508-13.815v-.003Zm7.03 13.293c-.212-5.322-3.247-8.527-6.915-8.527h-.139c-4.227 0-6.575 4.333-6.575 9.246 0 5.509 2.836 8.988 6.558 8.988 4.155 0 6.882-3.956 7.08-8.636l-.01-1.071Z" fill="#000"/></svg>