<svg width="30" height="31" fill="none" xmlns="http://www.w3.org/2000/svg"><path d="M27.589.26H2.41A2.412 2.412 0 0 0 0 2.67v25.178a2.412 2.412 0 0 0 2.411 2.41H27.59A2.412 2.412 0 0 0 30 27.85V2.67A2.412 2.412 0 0 0 27.589.26Zm0 27.6C10.796 27.856 2.4 27.852 2.4 27.849c.004-16.793.008-25.19.011-25.19 16.793.005 25.189.008 25.189.012a21055.67 21055.67 0 0 1-.011 25.189ZM4.448 11.506h4.45v14.317h-4.45V11.506Zm2.227-1.957a2.582 2.582 0 0 0 1.824-4.405A2.58 2.58 0 0 0 4.095 6.97a2.575 2.575 0 0 0 2.58 2.58Zm9.461 9.19c0-1.867.357-3.674 2.67-3.674 2.28 0 2.314 2.133 2.314 3.795v6.963h4.447v-7.852c0-3.855-.832-6.821-5.336-6.821-2.164 0-3.615 1.188-4.211 2.313h-.06v-1.957h-4.271v14.317h4.447V18.74Z" fill="#fff" fill-opacity=".9"/></svg>