<svg width="103" height="100" fill="none" xmlns="http://www.w3.org/2000/svg"><path d="M94.856 77.343c-5.604-.138-9.946.416-13.588 1.94-1.05.416-2.732.416-2.872 1.733.56.554.63 1.455 1.12 2.217.842 1.385 2.312 3.256 3.643 4.226 1.47 1.109 2.942 2.217 4.482 3.187 2.732 1.663 5.814 2.633 8.475 4.296 1.542.97 3.082 2.218 4.623 3.257.77.553 1.26 1.455 2.241 1.801v-.208c-.49-.624-.63-1.524-1.12-2.217-.7-.693-1.401-1.317-2.102-2.01-2.03-2.701-4.552-5.057-7.284-6.997-2.24-1.525-7.144-3.603-8.055-6.167l-.14-.138c1.541-.139 3.362-.693 4.833-1.109 2.382-.624 4.553-.485 7.004-1.108 1.12-.278 2.242-.624 3.362-.97v-.624c-1.26-1.247-2.171-2.91-3.502-4.088-3.572-3.049-7.494-6.028-11.556-8.522-2.172-1.386-4.974-2.287-7.285-3.464-.84-.417-2.241-.624-2.731-1.317-1.261-1.524-1.962-3.533-2.872-5.335-2.03-3.811-3.992-8.037-5.743-12.056-1.26-2.702-2.031-5.404-3.572-7.898-7.214-11.779-15.059-18.915-27.105-25.913-2.592-1.455-5.674-2.079-8.966-2.84-1.75-.07-3.502-.209-5.253-.278-1.12-.485-2.24-1.801-3.222-2.425C13.68 1.82 3.384-3.583.441 3.554c-1.89 4.503 2.802 8.937 4.413 11.224 1.191 1.594 2.732 3.395 3.573 5.197.49 1.177.63 2.425 1.12 3.672 1.12 3.048 2.171 6.443 3.642 9.284.77 1.455 1.611 2.98 2.592 4.296.56.762 1.54 1.108 1.75 2.356-.98 1.385-1.05 3.464-1.61 5.196-2.522 7.83-1.541 17.53 2.03 23.28 1.121 1.732 3.783 5.543 7.355 4.088 3.152-1.247 2.451-5.197 3.362-8.66.21-.833.07-1.387.49-1.94v.138c.98 1.94 1.961 3.81 2.871 5.75 2.172 3.395 5.954 6.93 9.106 9.285 1.681 1.247 3.012 3.395 5.113 4.157v-.208h-.14c-.42-.624-1.05-.9-1.611-1.386-1.26-1.247-2.662-2.771-3.642-4.157-2.941-3.88-5.533-8.175-7.845-12.61-1.12-2.148-2.1-4.504-3.011-6.651-.42-.832-.42-2.079-1.121-2.494-1.05 1.523-2.591 2.84-3.362 4.711-1.33 2.98-1.47 6.651-1.961 10.462-.28.07-.14 0-.28.139-2.241-.555-3.012-2.84-3.853-4.781-2.1-4.92-2.451-12.818-.63-18.5.49-1.455 2.592-6.027 1.751-7.413-.42-1.317-1.821-2.079-2.591-3.118-.91-1.317-1.891-2.98-2.522-4.434-1.68-3.88-2.521-8.176-4.342-12.056-.84-1.802-2.311-3.672-3.502-5.335-1.33-1.87-2.802-3.187-3.852-5.405-.35-.762-.84-2.009-.28-2.84.14-.554.42-.762.98-.9.91-.763 3.502.207 4.413.623 2.591 1.038 4.762 2.009 6.934 3.464.98.693 2.03 2.01 3.291 2.356h1.471c2.242.484 4.763.138 6.864.762 3.712 1.177 7.074 2.91 10.086 4.78 9.175 5.751 16.74 13.927 21.852 23.697.841 1.593 1.19 3.048 1.962 4.71 1.47 3.396 3.291 6.86 4.762 10.186 1.47 3.256 2.871 6.582 4.973 9.285 1.05 1.454 5.253 2.216 7.144 2.979 1.4.623 3.572 1.178 4.833 1.94 2.38 1.454 4.762 3.117 7.004 4.711 1.12.831 4.622 2.564 4.833 3.949Z" fill="#00546B"/></svg>