<svg width="30" height="28" fill="none" xmlns="http://www.w3.org/2000/svg"><path d="M27.48 0H2.52C1.816 0 1.22.355.732 1.064.244 1.774 0 2.593 0 3.52v20.96c0 .927.244 1.746.732 2.456C1.221 27.646 1.816 28 2.52 28h24.96c.704 0 1.3-.355 1.788-1.064.488-.71.732-1.529.732-2.456V3.52c0-.927-.244-1.746-.732-2.456C28.779.354 28.184 0 27.48 0Zm-2.343 3.52L15 11.871 4.863 3.521h20.274ZM2.52 24.48V5.65l11.835 9.906c.079.109.293.163.645.163.352 0 .566-.054.645-.163L27.48 5.649v18.83H2.52Z" fill="#fff"/></svg>